<svg width="90" height="28" viewBox="0 0 370 115" fill="none" xmlns="http://www.w3.org/2000/svg">
  <rect width="370" height="115" rx="15" fill="#2BA197"/>
  <path d="M32.7812 35.7344h21.1329c4.7656 0 8.3984.3646 10.8984 1.0937 3.3594.9896 6.237 2.7474 8.6328 5.2735 2.3958 2.526 4.2188 5.625 5.4688 9.2968 1.25 3.6459 1.875 8.1511 1.875 13.5157 0 4.7135-.586 8.776-1.7579 12.1875-1.4322 4.1666-3.4765 7.539-6.1328 10.1172-2.0052 1.9531-4.7135 3.4765-8.125 4.5703C62.2214 92.5964 58.8099 93 54.5391 93H32.7812V35.7344Zm11.5626 9.6875v37.9297h8.6328c3.2291 0 5.5599-.1823 6.9922-.5469 1.875-.4688 3.4244-1.263 4.6484-2.3828 1.25-1.1198 2.2656-2.9558 3.0469-5.5078.7812-2.5782 1.1718-6.0808 1.1718-10.5079 0-4.427-.3906-7.8255-1.1718-10.1953-.7813-2.3698-1.875-4.2187-3.2813-5.5468-1.4062-1.3282-3.1901-2.2266-5.3516-2.6953-1.6145-.3646-4.7786-.5469-9.4921-.5469h-5.1953ZM98.7578 93 85.0859 35.7344h11.836l8.6331 39.3359 10.468-39.3359h13.75l10.039 40 8.79-40h11.64L146.336 93H134.07l-11.406-42.8125L111.297 93H98.7578Zm67.4222 0V35.7344h18.554c7.032 0 11.615.2864 13.75.8594 3.282.8593 6.029 2.7343 8.243 5.625 2.213 2.8645 3.32 6.5755 3.32 11.1328 0 3.5156-.638 6.4713-1.914 8.8672-1.276 2.3958-2.904 4.2838-4.883 5.664-1.953 1.3542-3.945 2.2526-5.977 2.6953-2.76.5469-6.757.8203-11.992.8203h-7.539V93H166.18Zm11.562-47.5781v16.25h6.328c4.558 0 7.604-.2995 9.141-.8985 1.536-.5989 2.734-1.5364 3.594-2.8125.885-1.276 1.328-2.7604 1.328-4.4531 0-2.0833-.612-3.8021-1.836-5.1562-1.224-1.3542-2.774-2.2006-4.649-2.5391-1.38-.2604-4.153-.3906-8.32-.3906h-5.586ZM241.099 93V21.418h21.631l12.988 48.8281L288.56 21.418h21.679V93h-13.427V36.6523L282.603 93h-13.916l-14.161-56.3477V93h-13.427Zm83.056 0V21.418h14.454V93h-14.454Z" fill="#fff"/>
</svg>