<svg width="164" height="164" viewBox="0 0 164 164" fill="none" xmlns="http://www.w3.org/2000/svg">
  <rect width="164" height="164" rx="15" fill="#2BA197"/>
  <path d="M21.3609 136.695V83.0084H37.584l9.7413 36.6206 9.6313-36.6206h16.2598v53.6866H63.1456V94.4342L52.4888 136.695h-10.437L31.4317 94.4342v42.2608H21.3609Zm62.2925 0V83.0084h10.8398v53.6866H83.6534ZM20.9746 26.6299h14.5288c3.2764 0 5.7739.2506 7.4927.7519 2.3096.6804 4.2879 1.8889 5.9351 3.6255 1.6471 1.7367 2.9003 3.8672 3.7597 6.3916.8594 2.5065 1.2891 5.6039 1.2891 9.292 0 3.2406-.4029 6.0335-1.2085 8.3789-.9847 2.8646-2.3902 5.1831-4.2163 6.9556-1.3786 1.3428-3.2406 2.3901-5.586 3.1421-1.7545.555-4.0999.8325-7.0361.8325H20.9746V26.6299Zm7.9492 6.6601v26.0767h5.9351c2.22 0 3.8224-.1253 4.8071-.376 1.2891-.3222 2.3543-.8683 3.1958-1.6382.8594-.7698 1.5576-2.032 2.0947-3.7866.5372-1.7724.8057-4.1805.8057-7.2241 0-3.0436-.2685-5.38-.8057-7.0093-.5371-1.6292-1.289-2.9004-2.2558-3.8135-.9668-.913-2.1932-1.5307-3.6792-1.853-1.11-.2506-3.2853-.376-6.5259-.376h-3.5718ZM66.3335 66l-9.3994-39.3701h8.1372l5.935 27.0434 7.1973-27.0434h9.4531l6.9019 27.5 6.0424-27.5h8.003L99.0435 66h-8.4327L82.769 36.5664 74.9541 66h-8.6206Zm46.3525 0V26.6299h12.756c4.834 0 7.985.1969 9.454.5908 2.255.5908 4.144 1.8799 5.666 3.8672 1.522 1.9694 2.283 4.5207 2.283 7.6538 0 2.417-.439 4.4491-1.316 6.0962s-1.996 2.9451-3.357 3.894c-1.343.931-2.713 1.5487-4.109 1.8531-1.898.3759-4.646.5639-8.245.5639h-5.183V66h-7.949Zm7.949-32.71v11.1719h4.351c3.133 0 5.228-.2059 6.284-.6177 1.056-.4117 1.88-1.0563 2.471-1.9336.608-.8772.913-1.8977.913-3.0615 0-1.4323-.421-2.6139-1.262-3.5449-.842-.931-1.907-1.5129-3.196-1.7456-.949-.179-2.856-.2686-5.72-.2686h-3.841Z" fill="#fff"/>
</svg>
